<svg width="24" height="24" viewBox="0 0 24 24" fill="none" xmlns="http://www.w3.org/2000/svg">
<path fill-rule="evenodd" clip-rule="evenodd" d="M4.57668 1.18311C5.02788 1.50161 5.13546 2.12557 4.81697 2.57677C3.7113 4.14313 3 5.94574 3 8.00008C3 8.55237 2.55228 9.00008 2 9.00008C1.44772 9.00008 1 8.55237 1 8.00008C1 5.45442 1.8887 3.25704 3.18303 1.4234C3.50153 0.9722 4.12548 0.864621 4.57668 1.18311ZM19.4233 1.18311C19.8745 0.864621 20.4985 0.9722 20.817 1.4234C22.1113 3.25704 23 5.45442 23 8.00008C23 8.55237 22.5523 9.00008 22 9.00008C21.4477 9.00008 21 8.55237 21 8.00008C21 5.94574 20.2887 4.14313 19.183 2.57677C18.8645 2.12557 18.9721 1.50161 19.4233 1.18311ZM12 3.00008C10.6739 3.00008 9.40215 3.52687 8.46447 4.46455C7.52678 5.40223 7 6.674 7 8.00008C7 11.6474 6.21707 14.0655 5.3779 15.6039C5.3018 15.7434 5.22541 15.8754 5.14932 16.0001H18.8507C18.7746 15.8754 18.6982 15.7434 18.6221 15.6039C17.7829 14.0655 17 11.6474 17 8.00008C17 6.674 16.4732 5.40223 15.5355 4.46455C14.5979 3.52687 13.3261 3.00008 12 3.00008ZM21.5663 16.1759C21.5656 16.1754 21.5647 16.1747 21.5635 16.1738C21.5558 16.168 21.5379 16.1544 21.5113 16.1323C21.4581 16.0879 21.3697 16.0092 21.2572 15.8905C21.0328 15.6536 20.7097 15.2545 20.3779 14.6462C19.7171 13.4347 19 11.3527 19 8.00008C19 6.14357 18.2625 4.36309 16.9497 3.05033C15.637 1.73758 13.8565 1.00008 12 1.00008C10.1435 1.00008 8.36301 1.73758 7.05025 3.05033C5.7375 4.36309 5 6.14357 5 8.00008C5 11.3527 4.28293 13.4347 3.6221 14.6462C3.29031 15.2545 2.96723 15.6536 2.7428 15.8905C2.63032 16.0092 2.54194 16.0879 2.48872 16.1323C2.4621 16.1544 2.44425 16.168 2.43655 16.1738C2.43534 16.1747 2.43439 16.1754 2.43369 16.1759C2.0752 16.4221 1.91657 16.8726 2.04291 17.2899C2.17061 17.7116 2.55933 18.0001 3 18.0001H21C21.4407 18.0001 21.8294 17.7116 21.9571 17.2899C22.0834 16.8726 21.9248 16.4221 21.5663 16.1759ZM2.44379 16.169C2.44387 16.169 2.44395 16.1689 2.44403 16.1689C2.44403 16.1689 2.44403 16.1689 2.44402 16.1689L2.44379 16.169ZM9.81826 20.1238C10.3022 19.8577 10.9103 20.0343 11.1763 20.5183C11.2574 20.6658 11.3767 20.7888 11.5216 20.8745C11.6665 20.9602 11.8317 21.0054 12 21.0054C12.1684 21.0054 12.3336 20.9602 12.4785 20.8745C12.6234 20.7888 12.7427 20.6658 12.8238 20.5183C13.0898 20.0343 13.6979 19.8577 14.1818 20.1238C14.6658 20.3899 14.8424 20.9979 14.5763 21.4819C14.3227 21.9432 13.9498 22.328 13.4966 22.596C13.0434 22.864 12.5266 23.0054 12 23.0054C11.4735 23.0054 10.9567 22.864 10.5035 22.596C10.0503 22.328 9.67742 21.9432 9.42376 21.4819C9.15768 20.9979 9.3343 20.3899 9.81826 20.1238Z" fill="#09090B"/>
</svg>
