<svg width="24" height="24" viewBox="0 0 24 24" fill="none" xmlns="http://www.w3.org/2000/svg">
<path fill-rule="evenodd" clip-rule="evenodd" d="M12 6.00073C10.0691 6.00073 8.18167 6.57407 6.57699 7.64806C4.9823 8.71537 3.73823 10.2294 3.00027 12.0001C3.73823 13.7709 4.9823 15.2849 6.57699 16.3522C8.18167 17.4262 10.0691 17.9995 12 17.9995C13.9309 17.9995 15.8184 17.4262 17.423 16.3522C19.0177 15.2849 20.2618 13.7709 20.9998 12.0001C20.2618 10.2294 19.0177 8.71537 17.423 7.64806C15.8184 6.57407 13.9309 6.00073 12 6.00073ZM5.46458 5.98597C7.39842 4.69168 9.67302 4.00073 12 4.00073C14.327 4.00073 16.6016 4.69168 18.5355 5.98597C20.4693 7.28027 21.9753 9.11962 22.8625 11.2708C22.867 11.2819 22.8714 11.293 22.8755 11.3041C23.0422 11.7531 23.0422 12.2471 22.8755 12.6961C22.8714 12.7073 22.867 12.7184 22.8625 12.7294C21.9753 14.8806 20.4693 16.72 18.5355 18.0143C16.6016 19.3086 14.327 19.9995 12 19.9995C9.67302 19.9995 7.39842 19.3086 5.46458 18.0143C3.53074 16.72 2.02476 14.8806 1.13755 12.7294C1.13301 12.7184 1.12867 12.7073 1.12452 12.6961C0.957841 12.2471 0.957841 11.7531 1.12452 11.3041C1.12867 11.293 1.13301 11.2819 1.13755 11.2708C2.02476 9.11962 3.53074 7.28027 5.46458 5.98597ZM12 10C10.8954 10 10 10.8954 10 12C10 13.1046 10.8954 14 12 14C13.1046 14 14 13.1046 14 12C14 10.8954 13.1046 10 12 10ZM8 12C8 9.79086 9.79086 8 12 8C14.2091 8 16 9.79086 16 12C16 14.2091 14.2091 16 12 16C9.79086 16 8 14.2091 8 12Z" fill="#09090B"/>
</svg>
