<svg width="24" height="24" viewBox="0 0 24 24" fill="none" xmlns="http://www.w3.org/2000/svg">
<path fill-rule="evenodd" clip-rule="evenodd" d="M1.29289 1.29289C1.68342 0.902369 2.31658 0.902369 2.70711 1.29289L22.7071 21.2929C23.0976 21.6834 23.0976 22.3166 22.7071 22.7071C22.3166 23.0976 21.6834 23.0976 21.2929 22.7071L17.315 18.7292C16.0447 19.3735 14.6659 19.7824 13.2453 19.9338C11.5696 20.1124 9.87511 19.9284 8.27676 19.3944C6.67841 18.8603 5.21363 17.9888 3.98181 16.8387C2.74999 15.6887 1.77996 14.2872 1.13753 12.7292C1.133 12.7183 1.12866 12.7072 1.12452 12.696C0.957841 12.247 0.957841 11.7531 1.12452 11.304C1.12866 11.2929 1.133 11.2818 1.13753 11.2708C1.94455 9.31375 3.26198 7.61858 4.94205 6.35626L1.29289 2.70711C0.902369 2.31658 0.902369 1.68342 1.29289 1.29289ZM6.37341 7.78763C4.87916 8.84353 3.7078 10.302 3.00027 12C3.5334 13.2795 4.33326 14.4307 5.34665 15.3768C6.36879 16.3311 7.58425 17.0543 8.91054 17.4975C10.2368 17.9406 11.6429 18.0932 13.0334 17.9451C13.9919 17.8429 14.9275 17.5995 15.8104 17.2246L14.0315 15.4457C13.4108 15.8118 12.6972 16.0064 11.965 16C10.9162 15.9909 9.91296 15.5702 9.17133 14.8286C8.4297 14.0869 8.00902 13.0837 7.99991 12.0349C7.99354 11.3027 8.18815 10.5891 8.55417 9.96839L6.37341 7.78763ZM10.068 11.4822C10.0216 11.6553 9.99825 11.8352 9.99983 12.0175C10.0044 12.5419 10.2147 13.0435 10.5855 13.4144C10.9564 13.7852 11.458 13.9955 11.9824 14.0001C12.1647 14.0017 12.3446 13.9783 12.5177 13.9319L10.068 11.4822ZM16.9357 7.34052C15.1007 6.26379 12.9638 5.81721 10.8512 6.06897C10.3028 6.13432 9.80529 5.74273 9.73994 5.19433C9.67458 4.64592 10.0662 4.14837 10.6146 4.08302C13.1608 3.77958 15.7363 4.31783 17.9479 5.61556C20.1594 6.91329 21.8855 8.89919 22.8625 11.27C22.867 11.2809 22.8713 11.2919 22.8754 11.303C23.0421 11.752 23.0421 12.246 22.8754 12.695C22.8713 12.7062 22.8669 12.7173 22.8624 12.7283C22.4607 13.7022 21.9298 14.6176 21.284 15.45C20.9454 15.8863 20.3173 15.9656 19.8809 15.6271C19.4446 15.2885 19.3653 14.6604 19.7038 14.224C20.2323 13.5428 20.668 12.7946 20.9997 11.999C20.1867 10.0465 18.7603 8.41122 16.9357 7.34052Z" fill="#09090B"/>
</svg>
