<svg width="24" height="24" viewBox="0 0 24 24" fill="none" xmlns="http://www.w3.org/2000/svg">
<path fill-rule="evenodd" clip-rule="evenodd" d="M16.5003 4.20115C14.7172 3.17233 12.6353 2.78588 10.6018 3.10626C8.56826 3.42664 6.70602 4.43448 5.32562 5.96171C3.94523 7.48893 3.13012 9.44323 3.01623 11.4987C2.90234 13.5542 3.49656 15.5866 4.69978 17.2569C5.90301 18.9273 7.64251 20.1347 9.6282 20.6778C11.6139 21.2209 13.7258 21.0668 15.6116 20.2412C17.4974 19.4157 19.0433 17.9686 19.9913 16.1413C20.9393 14.3139 21.2323 12.2168 20.8212 10.1997C20.711 9.65849 21.0603 9.1304 21.6014 9.02013C22.1426 8.90986 22.6707 9.25917 22.781 9.80033C23.2833 12.2658 22.9253 14.8289 21.7666 17.0623C20.6079 19.2957 18.7185 21.0644 16.4136 22.0734C14.1087 23.0824 11.5276 23.2707 9.10059 22.6069C6.67364 21.9432 4.54758 20.4675 3.07697 18.4259C1.60636 16.3843 0.8801 13.9003 1.0193 11.3881C1.15849 8.87582 2.15473 6.48723 3.84188 4.62062C5.52903 2.75401 7.8051 1.5222 10.2905 1.13063C12.776 0.739054 15.3205 1.21138 17.4999 2.46883C17.9782 2.74484 18.1423 3.35639 17.8663 3.83476C17.5902 4.31312 16.9787 4.47716 16.5003 4.20115ZM22.7071 3.29289C23.0976 3.68342 23.0976 4.31658 22.7071 4.70711L12.7071 14.7071C12.3166 15.0976 11.6834 15.0976 11.2929 14.7071L8.29289 11.7071C7.90237 11.3166 7.90237 10.6834 8.29289 10.2929C8.68342 9.90237 9.31658 9.90237 9.70711 10.2929L12 12.5858L21.2929 3.29289C21.6834 2.90237 22.3166 2.90237 22.7071 3.29289Z" fill="#09090B"/>
</svg>
